<?xml version="1.0" encoding="utf-8"?>
<!-- Generator: Adobe Illustrator 26.1.0, SVG Export Plug-In . SVG Version: 6.00 Build 0)  -->
<svg version="1.1" id="Vrstva_1" xmlns="http://www.w3.org/2000/svg" xmlns:xlink="http://www.w3.org/1999/xlink" x="0px" y="0px"
	 viewBox="0 0 595.28 595.28" style="enable-background:new 0 0 595.28 595.28;" xml:space="preserve">
<style type="text/css">
	.st0{fill:url(#SVGID_1_);}
	.st1{fill:url(#SVGID_00000086652722792214648060000013049083402379611059_);}
	.st2{fill:url(#SVGID_00000178913523838570145340000016698097909811130279_);}
</style>
<linearGradient id="SVGID_1_" gradientUnits="userSpaceOnUse" x1="273.8475" y1="684.0622" x2="446.7248" y2="38.8753">
	<stop  offset="1.385225e-07" style="stop-color:#F000C0"/>
	<stop  offset="0.1111" style="stop-color:#EA00BD"/>
	<stop  offset="0.2619" style="stop-color:#D901B4"/>
	<stop  offset="0.4352" style="stop-color:#BC02A5"/>
	<stop  offset="0.6255" style="stop-color:#940390"/>
	<stop  offset="0.8271" style="stop-color:#620476"/>
	<stop  offset="1" style="stop-color:#31065C"/>
</linearGradient>
<path class="st0" d="M293.09,149.95c18.82,19.83,37.55,42.02,55.51,66.81c98.43,135.91,124.35,282.12,130.8,378.51
	c38.62,0,77.25,0,115.87,0C583.4,469.09,546.9,290.21,434.94,112.25C408.63,70.44,380.97,33.14,353.3,0c-41.28,0-82.55,0-123.83,0
	C152.98,198.43,76.49,396.85,0,595.28c37.11,0,74.22,0,111.33,0C171.92,446.84,232.51,298.4,293.09,149.95z"/>
<linearGradient id="SVGID_00000085213392147870562000000008225068150321324187_" gradientUnits="userSpaceOnUse" x1="273.7512" y1="492.8212" x2="201.5275" y2="223.2789">
	<stop  offset="1.278670e-07" style="stop-color:#31065C"/>
	<stop  offset="0.0656" style="stop-color:#400664"/>
	<stop  offset="0.4019" style="stop-color:#8B038B"/>
	<stop  offset="0.6806" style="stop-color:#C201A8"/>
	<stop  offset="0.8876" style="stop-color:#E300B9"/>
	<stop  offset="1" style="stop-color:#F000C0"/>
</linearGradient>
<path style="fill:url(#SVGID_00000085213392147870562000000008225068150321324187_);" d="M349.01,320.9
	c-70.77-26.75-141.54-53.5-212.31-80.25c-13.71,35.57-27.42,71.13-41.13,106.7c102.69,36.89,205.38,73.78,308.07,110.67
	c-5.72-20.15-12.83-41.85-21.73-64.69C371.42,366.39,360.15,342.23,349.01,320.9z"/>
<linearGradient id="SVGID_00000004518590821489950340000017248990199590225836_" gradientUnits="userSpaceOnUse" x1="342.4564" y1="558.5813" x2="482.8283" y2="34.7063">
	<stop  offset="1.278670e-07" style="stop-color:#31065C"/>
	<stop  offset="1" style="stop-color:#F000C0"/>
</linearGradient>
<path style="fill:url(#SVGID_00000004518590821489950340000017248990199590225836_);" d="M293.09,149.95
	c18.82,19.83,37.55,42.02,55.51,66.81c98.43,135.91,124.35,282.12,130.8,378.51c38.62,0,77.25,0,115.87,0
	C583.4,469.09,546.9,290.21,434.94,112.25C408.63,70.44,380.97,33.14,353.3,0c-41.28,0-82.55,0-123.83,0
	C250.68,49.99,271.89,99.97,293.09,149.95z"/>
</svg>
